{
	"asset":{
		"generator":"Khronos glTF Blender I/O v4.1.63",
		"version":"2.0"
	},
	"scene":0,
	"scenes":[
		{
			"name":"Scene",
			"nodes":[
				0,
				1
			]
		}
	],
	"nodes":[
		{
			"mesh":0,
			"name":"bed",
			"translation":[
				-1.491525411605835,
				0.22372877597808838,
				0.8491525650024414
			]
		},
		{
			"mesh":1,
			"name":"pillow",
			"translation":[
				-1.491525411605835,
				0.22372877597808838,
				0.8491525650024414
			]
		}
	],
	"materials":[
		{
			"name":"bed",
			"pbrMetallicRoughness":{
				"baseColorTexture":{
					"index":0
				},
				"metallicFactor":0,
				"roughnessFactor":0.5
			}
		}
	],
	"meshes":[
		{
			"name":"Cube.002",
			"primitives":[
				{
					"attributes":{
						"POSITION":0,
						"NORMAL":1,
						"TEXCOORD_0":2
					},
					"indices":3,
					"material":0
				}
			]
		},
		{
			"name":"Cube.006",
			"primitives":[
				{
					"attributes":{
						"POSITION":4,
						"NORMAL":5,
						"TEXCOORD_0":6
					},
					"indices":7,
					"material":0
				}
			]
		}
	],
	"textures":[
		{
			"sampler":0,
			"source":0
		}
	],
	"images":[
		{
			"mimeType":"image/png",
			"name":"bed",
			"uri":"bed.png"
		}
	],
	"accessors":[
		{
			"bufferView":0,
			"componentType":5126,
			"count":146,
			"max":[
				0.49152541160583496,
				0.2762712240219116,
				1.1508474349975586
			],
			"min":[
				-0.508474588394165,
				-0.22372877597808838,
				-0.8491525650024414
			],
			"type":"VEC3"
		},
		{
			"bufferView":1,
			"componentType":5126,
			"count":146,
			"type":"VEC3"
		},
		{
			"bufferView":2,
			"componentType":5126,
			"count":146,
			"type":"VEC2"
		},
		{
			"bufferView":3,
			"componentType":5123,
			"count":270,
			"type":"SCALAR"
		},
		{
			"bufferView":4,
			"componentType":5126,
			"count":152,
			"max":[
				0.2785254716873169,
				0.25127124786376953,
				0.9958474636077881
			],
			"min":[
				-0.2852246165275574,
				0.17627114057540894,
				0.7008474469184875
			],
			"type":"VEC3"
		},
		{
			"bufferView":5,
			"componentType":5126,
			"count":152,
			"type":"VEC3"
		},
		{
			"bufferView":6,
			"componentType":5126,
			"count":152,
			"type":"VEC2"
		},
		{
			"bufferView":7,
			"componentType":5123,
			"count":228,
			"type":"SCALAR"
		}
	],
	"bufferViews":[
		{
			"buffer":0,
			"byteLength":1752,
			"byteOffset":0,
			"target":34962
		},
		{
			"buffer":0,
			"byteLength":1752,
			"byteOffset":1752,
			"target":34962
		},
		{
			"buffer":0,
			"byteLength":1168,
			"byteOffset":3504,
			"target":34962
		},
		{
			"buffer":0,
			"byteLength":540,
			"byteOffset":4672,
			"target":34963
		},
		{
			"buffer":0,
			"byteLength":1824,
			"byteOffset":5212,
			"target":34962
		},
		{
			"buffer":0,
			"byteLength":1824,
			"byteOffset":7036,
			"target":34962
		},
		{
			"buffer":0,
			"byteLength":1216,
			"byteOffset":8860,
			"target":34962
		},
		{
			"buffer":0,
			"byteLength":456,
			"byteOffset":10076,
			"target":34963
		}
	],
	"samplers":[
		{
			"magFilter":9729,
			"minFilter":9987
		}
	],
	"buffers":[
		{
			"byteLength":10532,
			"uri":"bed.bin"
		}
	]
}
