{
	"asset":{
		"generator":"Khronos glTF Blender I/O v4.1.63",
		"version":"2.0"
	},
	"scene":0,
	"scenes":[
		{
			"name":"Scene",
			"nodes":[
				8
			]
		}
	],
	"nodes":[
		{
			"name":"legFL",
			"rotation":[
				0.70710688829422,
				-1.0536716388287459e-07,
				-0.7071066498756409,
				5.024294934767972e-15
			],
			"scale":[
				1,
				0.9999999403953552,
				1
			],
			"translation":[
				0.12759995460510254,
				0.11817952990531921,
				0.16263465583324432
			]
		},
		{
			"name":"legFR",
			"rotation":[
				-0.70710688829422,
				5.024294934767972e-15,
				0.7071066498756409,
				1.0536714256659252e-07
			],
			"scale":[
				1,
				0.9999999403953552,
				1
			],
			"translation":[
				-0.12759685516357422,
				0.11817952990531921,
				0.16262997686862946
			]
		},
		{
			"name":"legBR",
			"rotation":[
				-0.7071067094802856,
				0,
				0.7071068286895752,
				1.0536712125031045e-07
			],
			"translation":[
				-0.12759846448898315,
				0.11817952990531921,
				-0.1244635358452797
			]
		},
		{
			"name":"legBL",
			"rotation":[
				-0.7071067094802856,
				0,
				0.7071068286895752,
				1.0536712125031045e-07
			],
			"translation":[
				0.12759995460510254,
				0.11817952990531921,
				-0.12446355074644089
			]
		},
		{
			"name":"head",
			"rotation":[
				0.7071067690849304,
				-2.2197245641564223e-07,
				-2.2197245641564223e-07,
				0.7071067690849304
			],
			"translation":[
				-1.4598481357097626e-06,
				0.171270489692688,
				0.19676056504249573
			]
		},
		{
			"name":"tail",
			"rotation":[
				-0.843391478061676,
				0,
				0,
				0.5372995734214783
			],
			"translation":[
				7.748603820800781e-07,
				0.11395993828773499,
				-0.2291755974292755
			]
		},
		{
			"children":[
				0,
				1,
				2,
				3,
				4,
				5
			],
			"name":"body"
		},
		{
			"mesh":0,
			"name":"Sphere",
			"skin":0
		},
		{
			"children":[
				7,
				6
			],
			"name":"Armature"
		}
	],
	"animations":[
		{
			"channels":[
				{
					"sampler":0,
					"target":{
						"node":6,
						"path":"translation"
					}
				},
				{
					"sampler":1,
					"target":{
						"node":6,
						"path":"rotation"
					}
				},
				{
					"sampler":2,
					"target":{
						"node":6,
						"path":"scale"
					}
				},
				{
					"sampler":3,
					"target":{
						"node":0,
						"path":"translation"
					}
				},
				{
					"sampler":4,
					"target":{
						"node":0,
						"path":"rotation"
					}
				},
				{
					"sampler":5,
					"target":{
						"node":0,
						"path":"scale"
					}
				},
				{
					"sampler":6,
					"target":{
						"node":1,
						"path":"translation"
					}
				},
				{
					"sampler":7,
					"target":{
						"node":1,
						"path":"rotation"
					}
				},
				{
					"sampler":8,
					"target":{
						"node":1,
						"path":"scale"
					}
				},
				{
					"sampler":9,
					"target":{
						"node":2,
						"path":"translation"
					}
				},
				{
					"sampler":10,
					"target":{
						"node":2,
						"path":"rotation"
					}
				},
				{
					"sampler":11,
					"target":{
						"node":2,
						"path":"scale"
					}
				},
				{
					"sampler":12,
					"target":{
						"node":3,
						"path":"translation"
					}
				},
				{
					"sampler":13,
					"target":{
						"node":3,
						"path":"rotation"
					}
				},
				{
					"sampler":14,
					"target":{
						"node":3,
						"path":"scale"
					}
				},
				{
					"sampler":15,
					"target":{
						"node":4,
						"path":"translation"
					}
				},
				{
					"sampler":16,
					"target":{
						"node":4,
						"path":"rotation"
					}
				},
				{
					"sampler":17,
					"target":{
						"node":4,
						"path":"scale"
					}
				},
				{
					"sampler":18,
					"target":{
						"node":5,
						"path":"translation"
					}
				},
				{
					"sampler":19,
					"target":{
						"node":5,
						"path":"rotation"
					}
				},
				{
					"sampler":20,
					"target":{
						"node":5,
						"path":"scale"
					}
				}
			],
			"name":"Armature",
			"samplers":[
				{
					"input":7,
					"interpolation":"LINEAR",
					"output":8
				},
				{
					"input":7,
					"interpolation":"LINEAR",
					"output":9
				},
				{
					"input":7,
					"interpolation":"LINEAR",
					"output":10
				},
				{
					"input":7,
					"interpolation":"LINEAR",
					"output":11
				},
				{
					"input":7,
					"interpolation":"LINEAR",
					"output":12
				},
				{
					"input":7,
					"interpolation":"LINEAR",
					"output":13
				},
				{
					"input":7,
					"interpolation":"LINEAR",
					"output":14
				},
				{
					"input":7,
					"interpolation":"LINEAR",
					"output":15
				},
				{
					"input":7,
					"interpolation":"LINEAR",
					"output":16
				},
				{
					"input":7,
					"interpolation":"LINEAR",
					"output":17
				},
				{
					"input":7,
					"interpolation":"LINEAR",
					"output":18
				},
				{
					"input":7,
					"interpolation":"LINEAR",
					"output":19
				},
				{
					"input":7,
					"interpolation":"LINEAR",
					"output":20
				},
				{
					"input":7,
					"interpolation":"LINEAR",
					"output":21
				},
				{
					"input":7,
					"interpolation":"LINEAR",
					"output":22
				},
				{
					"input":7,
					"interpolation":"LINEAR",
					"output":23
				},
				{
					"input":7,
					"interpolation":"LINEAR",
					"output":24
				},
				{
					"input":7,
					"interpolation":"LINEAR",
					"output":25
				},
				{
					"input":7,
					"interpolation":"LINEAR",
					"output":26
				},
				{
					"input":7,
					"interpolation":"LINEAR",
					"output":27
				},
				{
					"input":7,
					"interpolation":"LINEAR",
					"output":28
				}
			]
		}
	],
	"materials":[
		{
			"doubleSided":true,
			"name":"vedal987",
			"pbrMetallicRoughness":{
				"baseColorTexture":{
					"index":0
				},
				"metallicFactor":0,
				"roughnessFactor":0.5
			}
		}
	],
	"meshes":[
		{
			"name":"Sphere",
			"primitives":[
				{
					"attributes":{
						"POSITION":0,
						"NORMAL":1,
						"TEXCOORD_0":2,
						"JOINTS_0":3,
						"WEIGHTS_0":4
					},
					"indices":5,
					"material":0
				}
			]
		}
	],
	"textures":[
		{
			"sampler":0,
			"source":0
		}
	],
	"images":[
		{
			"mimeType":"image/png",
			"name":"vedal987",
			"uri":"vedal987.png"
		}
	],
	"skins":[
		{
			"inverseBindMatrices":6,
			"joints":[
				6,
				0,
				1,
				2,
				3,
				4,
				5
			],
			"name":"Armature"
		}
	],
	"accessors":[
		{
			"bufferView":0,
			"componentType":5126,
			"count":1247,
			"max":[
				0.24301503598690033,
				0.3881130814552307,
				0.376204252243042
			],
			"min":[
				-0.2430136650800705,
				5.5029988288879395e-05,
				-0.2641755938529968
			],
			"type":"VEC3"
		},
		{
			"bufferView":1,
			"componentType":5126,
			"count":1247,
			"type":"VEC3"
		},
		{
			"bufferView":2,
			"componentType":5126,
			"count":1247,
			"type":"VEC2"
		},
		{
			"bufferView":3,
			"componentType":5121,
			"count":1247,
			"type":"VEC4"
		},
		{
			"bufferView":4,
			"componentType":5126,
			"count":1247,
			"type":"VEC4"
		},
		{
			"bufferView":5,
			"componentType":5123,
			"count":1914,
			"type":"SCALAR"
		},
		{
			"bufferView":6,
			"componentType":5126,
			"count":7,
			"type":"MAT4"
		},
		{
			"bufferView":7,
			"componentType":5126,
			"count":33,
			"max":[
				1.3333333333333333
			],
			"min":[
				0
			],
			"type":"SCALAR"
		},
		{
			"bufferView":8,
			"componentType":5126,
			"count":33,
			"type":"VEC3"
		},
		{
			"bufferView":9,
			"componentType":5126,
			"count":33,
			"type":"VEC4"
		},
		{
			"bufferView":10,
			"componentType":5126,
			"count":33,
			"type":"VEC3"
		},
		{
			"bufferView":11,
			"componentType":5126,
			"count":33,
			"type":"VEC3"
		},
		{
			"bufferView":12,
			"componentType":5126,
			"count":33,
			"type":"VEC4"
		},
		{
			"bufferView":13,
			"componentType":5126,
			"count":33,
			"type":"VEC3"
		},
		{
			"bufferView":14,
			"componentType":5126,
			"count":33,
			"type":"VEC3"
		},
		{
			"bufferView":15,
			"componentType":5126,
			"count":33,
			"type":"VEC4"
		},
		{
			"bufferView":16,
			"componentType":5126,
			"count":33,
			"type":"VEC3"
		},
		{
			"bufferView":17,
			"componentType":5126,
			"count":33,
			"type":"VEC3"
		},
		{
			"bufferView":18,
			"componentType":5126,
			"count":33,
			"type":"VEC4"
		},
		{
			"bufferView":19,
			"componentType":5126,
			"count":33,
			"type":"VEC3"
		},
		{
			"bufferView":20,
			"componentType":5126,
			"count":33,
			"type":"VEC3"
		},
		{
			"bufferView":21,
			"componentType":5126,
			"count":33,
			"type":"VEC4"
		},
		{
			"bufferView":22,
			"componentType":5126,
			"count":33,
			"type":"VEC3"
		},
		{
			"bufferView":23,
			"componentType":5126,
			"count":33,
			"type":"VEC3"
		},
		{
			"bufferView":24,
			"componentType":5126,
			"count":33,
			"type":"VEC4"
		},
		{
			"bufferView":25,
			"componentType":5126,
			"count":33,
			"type":"VEC3"
		},
		{
			"bufferView":26,
			"componentType":5126,
			"count":33,
			"type":"VEC3"
		},
		{
			"bufferView":27,
			"componentType":5126,
			"count":33,
			"type":"VEC4"
		},
		{
			"bufferView":28,
			"componentType":5126,
			"count":33,
			"type":"VEC3"
		}
	],
	"bufferViews":[
		{
			"buffer":0,
			"byteLength":14964,
			"byteOffset":0,
			"target":34962
		},
		{
			"buffer":0,
			"byteLength":14964,
			"byteOffset":14964,
			"target":34962
		},
		{
			"buffer":0,
			"byteLength":9976,
			"byteOffset":29928,
			"target":34962
		},
		{
			"buffer":0,
			"byteLength":4988,
			"byteOffset":39904,
			"target":34962
		},
		{
			"buffer":0,
			"byteLength":19952,
			"byteOffset":44892,
			"target":34962
		},
		{
			"buffer":0,
			"byteLength":3828,
			"byteOffset":64844,
			"target":34963
		},
		{
			"buffer":0,
			"byteLength":448,
			"byteOffset":68672
		},
		{
			"buffer":0,
			"byteLength":132,
			"byteOffset":69120
		},
		{
			"buffer":0,
			"byteLength":396,
			"byteOffset":69252
		},
		{
			"buffer":0,
			"byteLength":528,
			"byteOffset":69648
		},
		{
			"buffer":0,
			"byteLength":396,
			"byteOffset":70176
		},
		{
			"buffer":0,
			"byteLength":396,
			"byteOffset":70572
		},
		{
			"buffer":0,
			"byteLength":528,
			"byteOffset":70968
		},
		{
			"buffer":0,
			"byteLength":396,
			"byteOffset":71496
		},
		{
			"buffer":0,
			"byteLength":396,
			"byteOffset":71892
		},
		{
			"buffer":0,
			"byteLength":528,
			"byteOffset":72288
		},
		{
			"buffer":0,
			"byteLength":396,
			"byteOffset":72816
		},
		{
			"buffer":0,
			"byteLength":396,
			"byteOffset":73212
		},
		{
			"buffer":0,
			"byteLength":528,
			"byteOffset":73608
		},
		{
			"buffer":0,
			"byteLength":396,
			"byteOffset":74136
		},
		{
			"buffer":0,
			"byteLength":396,
			"byteOffset":74532
		},
		{
			"buffer":0,
			"byteLength":528,
			"byteOffset":74928
		},
		{
			"buffer":0,
			"byteLength":396,
			"byteOffset":75456
		},
		{
			"buffer":0,
			"byteLength":396,
			"byteOffset":75852
		},
		{
			"buffer":0,
			"byteLength":528,
			"byteOffset":76248
		},
		{
			"buffer":0,
			"byteLength":396,
			"byteOffset":76776
		},
		{
			"buffer":0,
			"byteLength":396,
			"byteOffset":77172
		},
		{
			"buffer":0,
			"byteLength":528,
			"byteOffset":77568
		},
		{
			"buffer":0,
			"byteLength":396,
			"byteOffset":78096
		}
	],
	"samplers":[
		{
			"magFilter":9729,
			"minFilter":9987
		}
	],
	"buffers":[
		{
			"byteLength":78492,
			"uri":"vedal.bin"
		}
	]
}
