{
	"asset":{
		"generator":"Khronos glTF Blender I/O v4.1.63",
		"version":"2.0"
	},
	"scene":0,
	"scenes":[
		{
			"name":"Scene",
			"nodes":[
				0
			]
		}
	],
	"nodes":[
		{
			"mesh":0,
			"name":"desk",
			"translation":[
				1.7139992713928223,
				0.9139882326126099,
				1.097461462020874
			]
		}
	],
	"materials":[
		{
			"doubleSided":true,
			"name":"desk",
			"pbrMetallicRoughness":{
				"baseColorTexture":{
					"index":0
				},
				"metallicFactor":0,
				"roughnessFactor":0.5
			}
		}
	],
	"meshes":[
		{
			"name":"Cube.003",
			"primitives":[
				{
					"attributes":{
						"POSITION":0,
						"NORMAL":1,
						"TEXCOORD_0":2
					},
					"indices":3,
					"material":0
				}
			]
		}
	],
	"textures":[
		{
			"sampler":0,
			"source":0
		}
	],
	"images":[
		{
			"mimeType":"image/png",
			"name":"desk",
			"uri":"desk.png"
		}
	],
	"accessors":[
		{
			"bufferView":0,
			"componentType":5126,
			"count":487,
			"max":[
				0.28600090742111206,
				0.4077310562133789,
				0.9025384783744812
			],
			"min":[
				-0.713999330997467,
				-0.9139882922172546,
				-1.097461462020874
			],
			"type":"VEC3"
		},
		{
			"bufferView":1,
			"componentType":5126,
			"count":487,
			"type":"VEC3"
		},
		{
			"bufferView":2,
			"componentType":5126,
			"count":487,
			"type":"VEC2"
		},
		{
			"bufferView":3,
			"componentType":5123,
			"count":753,
			"type":"SCALAR"
		}
	],
	"bufferViews":[
		{
			"buffer":0,
			"byteLength":5844,
			"byteOffset":0,
			"target":34962
		},
		{
			"buffer":0,
			"byteLength":5844,
			"byteOffset":5844,
			"target":34962
		},
		{
			"buffer":0,
			"byteLength":3896,
			"byteOffset":11688,
			"target":34962
		},
		{
			"buffer":0,
			"byteLength":1506,
			"byteOffset":15584,
			"target":34963
		}
	],
	"samplers":[
		{
			"magFilter":9729,
			"minFilter":9987
		}
	],
	"buffers":[
		{
			"byteLength":17092,
			"uri":"desk.bin"
		}
	]
}
